<?xml version="1.0" encoding="UTF-8" standalone="no"?>
<svg
   xmlns:dc="http://purl.org/dc/elements/1.1/"
   xmlns:cc="http://creativecommons.org/ns#"
   xmlns:rdf="http://www.w3.org/1999/02/22-rdf-syntax-ns#"
   xmlns:svg="http://www.w3.org/2000/svg"
   xmlns="http://www.w3.org/2000/svg"
   viewBox="0 0 1511.8134 1511.8134"
   height="1511.8134"
   width="1511.8134"
   xml:space="preserve"
   id="svg2"
   version="1.1"><metadata
     id="metadata8"><rdf:RDF><cc:Work
         rdf:about=""><dc:format>image/svg+xml</dc:format><dc:type
           rdf:resource="http://purl.org/dc/dcmitype/StillImage" /></cc:Work></rdf:RDF></metadata><defs
     id="defs6"><clipPath
       id="clipPath22"
       clipPathUnits="userSpaceOnUse"><path
         id="path20"
         d="M 0,1133.858 H 1133.858 V 0 H 0 Z" /></clipPath></defs><g
     transform="matrix(1.3333333,0,0,-1.3333333,0,1511.8133)"
     id="g10"><g
       transform="translate(648.2246,871.8153)"
       id="g12"><path
         id="path14"
         style="fill:#1d1d1b;fill-opacity:1;fill-rule:nonzero;stroke:none"
         d="M 0,0 281.398,-389.039 -443.989,-609.772 Z" /></g><g
       id="g16"><g
         clip-path="url(#clipPath22)"
         id="g18"><g
           transform="translate(477.3662,522.3446)"
           id="g24"><path
             id="path26"
             style="fill:#ffffff;fill-opacity:1;fill-rule:nonzero;stroke:none"
             d="m 0,0 c 1.59,4.012 3.373,8.741 5.345,14.186 1.972,5.44 3.67,10.666 5.093,15.68 1.42,5.011 2.298,9.407 2.628,13.186 0.327,3.775 -0.465,6.073 -2.385,6.894 -3.215,1.425 -7.144,0.53 -11.785,-2.681 -4.646,-3.213 -9.629,-8.172 -14.959,-14.874 -5.331,-6.707 -10.766,-14.813 -16.304,-24.316 -5.54,-9.508 -10.822,-19.795 -15.853,-30.866 -5.03,-11.077 -9.58,-22.544 -13.644,-34.404 -4.069,-11.861 -7.381,-23.524 -9.94,-34.987 -2.563,-11.464 -4.03,-22.405 -4.408,-32.819 -0.376,-10.417 0.596,-19.673 2.919,-27.765 1.772,-6.722 4.101,-11.078 6.993,-13.061 2.886,-1.981 6.239,-3.04 10.062,-3.168 4.042,-0.256 9.207,1.86 15.501,6.358 6.289,4.497 13.054,10.255 20.289,17.274 7.235,7.018 14.647,14.793 22.242,23.326 7.591,8.529 14.7,16.934 21.32,25.21 6.619,8.274 12.439,15.816 17.456,22.631 5.019,6.81 8.657,12.028 10.92,15.656 -1.686,-3.666 -4.572,-8.872 -8.656,-15.626 -4.088,-6.758 -9,-14.156 -14.732,-22.197 -5.737,-8.043 -12.089,-16.44 -19.056,-25.183 -6.969,-8.75 -14.068,-17.009 -21.291,-24.778 -7.228,-7.77 -14.399,-14.678 -21.51,-20.718 -7.117,-6.037 -13.718,-10.432 -19.808,-13.172 -4.063,-1.825 -8.103,-1.946 -12.116,-0.354 -4.018,1.593 -7.652,4.609 -10.903,9.049 -4.474,6.202 -7.549,14.095 -9.227,23.688 -1.676,9.589 -2.135,20.115 -1.369,31.58 0.762,11.46 2.636,23.55 5.628,36.264 2.988,12.712 6.722,25.289 11.204,37.733 4.48,12.441 9.687,24.46 15.62,36.06 5.932,11.593 12.269,22.017 19.012,31.274 6.738,9.252 13.787,16.979 21.145,23.177 7.354,6.198 14.776,10.187 22.255,11.973 5.624,0.914 9.535,-0.091 11.725,-3.015 2.192,-2.926 3.283,-6.898 3.282,-11.91 C 22.689,40.288 21.896,34.684 20.311,28.494 18.724,22.3 16.891,16.329 14.813,10.577 12.733,4.82 10.713,-0.254 8.749,-4.65 6.786,-9.049 5.413,-11.918 4.631,-13.259 c -0.934,-0.06 -1.923,0.105 -2.97,0.494 -1.051,0.384 -1.902,1.105 -2.558,2.165 -0.66,1.055 -0.976,2.44 -0.953,4.15 0.021,1.709 0.638,3.859 1.85,6.45" /></g><g
           transform="translate(548.1406,460.6542)"
           id="g28"><path
             id="path30"
             style="fill:#ffffff;fill-opacity:1;fill-rule:nonzero;stroke:none"
             d="m 0,0 c -2.78,5.514 -5.28,7.646 -7.506,6.396 -2.225,-1.251 -4.1,-4.017 -5.621,-8.295 -1.524,-4.284 -2.679,-9.224 -3.473,-14.827 -0.794,-5.605 -1.037,-10.069 -0.727,-13.396 1.312,1.482 3.116,3.612 5.412,6.396 2.292,2.78 4.455,5.717 6.479,8.807 2.025,3.088 3.675,5.982 4.95,8.687 C 0.789,-3.531 0.951,-1.453 0,0 M 61.586,21.631 C 60.375,19.04 58.238,15.114 55.178,9.862 52.114,4.604 48.676,-0.845 44.865,-6.484 c -3.812,-5.646 -7.831,-10.867 -12.052,-15.67 -4.225,-4.805 -8.189,-8.076 -11.893,-9.808 -3.709,-1.736 -6.875,-1.386 -9.503,1.043 -2.629,2.431 -4.201,8.214 -4.717,17.354 -2.218,-3.806 -4.433,-7.415 -6.654,-10.84 -2.22,-3.424 -4.389,-6.508 -6.508,-9.24 -2.117,-2.736 -4.086,-4.959 -5.907,-6.667 -1.82,-1.712 -3.464,-2.666 -4.924,-2.859 -4.342,-0.768 -7.377,0.702 -9.114,4.411 -1.73,3.704 -2.469,8.291 -2.206,13.756 0.262,5.463 1.39,11.249 3.373,17.357 1.984,6.103 4.551,11.278 7.693,15.513 3.142,4.236 6.67,6.821 10.589,7.76 3.914,0.935 7.901,-0.897 11.956,-5.506 0.901,2.318 1.987,5.017 3.26,8.099 1.269,3.076 2.76,5.314 4.475,6.716 0.612,0.539 1.386,0.836 2.32,0.895 0.93,0.056 1.826,-0.468 2.683,-1.562 0.492,-0.44 0.526,-2.183 0.1,-5.228 C 17.406,15.99 16.878,12.443 16.241,8.398 15.604,4.35 15.057,0.137 14.604,-4.241 c -0.456,-4.378 -0.496,-8.178 -0.12,-11.388 0.373,-3.217 1.302,-5.477 2.784,-6.79 1.482,-1.313 3.827,-0.886 7.043,1.288 2.905,1.902 6.208,4.805 9.91,8.718 3.699,3.906 7.308,7.982 10.831,12.224 3.518,4.237 6.782,8.363 9.797,12.378 3.01,4.01 5.255,7.158 6.737,9.442" /></g><g
           transform="translate(617.8301,452.6219)"
           id="g32"><path
             id="path34"
             style="fill:#ffffff;fill-opacity:1;fill-rule:nonzero;stroke:none"
             d="m 0,0 c 0.676,2.45 2.032,5.03 4.062,7.744 2.029,2.708 4.163,5.214 6.397,7.508 2.235,2.291 4.315,4.26 6.25,5.905 1.932,1.645 3.206,2.736 3.821,3.28 C 20.398,24.211 18.999,22.705 16.326,19.92 13.655,17.131 11.029,13.981 8.456,10.464 5.879,6.945 4.127,3.547 3.192,0.275 2.256,-3.002 3.416,-5.062 6.668,-5.906 c 4.099,-1.192 8.062,-0.43 11.891,2.282 3.827,2.713 7.011,6.25 9.553,10.61 2.54,4.362 4.044,9.061 4.513,14.11 0.468,5.042 -0.697,9.277 -3.492,12.707 -2.571,3.296 -5.49,4.133 -8.755,2.517 -3.264,-1.618 -6.34,-4.324 -9.219,-8.108 C 8.276,24.422 5.799,20.171 3.73,15.465 1.659,10.753 0.509,7.041 0.277,4.333 Z m 0.645,27.71 c 2.128,3.401 4.499,6.626 7.1,9.681 2.603,3.051 5.369,5.483 8.297,7.298 2.93,1.81 5.937,2.793 9.019,2.946 3.085,0.147 6.194,-1.066 9.335,-3.643 3.636,-3.017 6.013,-6.649 7.132,-10.896 1.12,-4.248 1.277,-8.609 0.467,-13.079 C 41.188,15.545 39.554,11.139 37.104,6.802 34.649,2.465 31.79,-1.227 28.522,-4.262 25.251,-7.303 21.606,-9.447 17.584,-10.695 13.558,-11.947 9.651,-11.841 5.859,-10.379 2.692,-9.134 0.827,-7.446 0.268,-5.322 l -1.833,-148.121 c -1.992,16.89 -3.645,33.392 -4.962,49.511 -1.314,16.122 -2.395,32.069 -3.244,47.838 -0.844,15.775 -1.479,31.645 -1.907,47.622 -0.423,15.974 -0.77,32.35 -1.028,49.131 -0.093,0.352 0.576,0.671 2.018,0.957 1.439,0.282 2.992,0.314 4.661,0.094 1.666,-0.227 3.162,-0.87 4.486,-1.941 1.32,-1.072 1.932,-2.853 1.833,-5.337 z" /></g><g
           transform="translate(695.6562,558.0331)"
           id="g36"><path
             id="path38"
             style="fill:#ffffff;fill-opacity:1;fill-rule:nonzero;stroke:none"
             d="m 0,0 c -0.03,-1.334 -0.273,-3.103 -0.73,-5.304 -0.462,-2.207 -0.832,-4.575 -1.109,-7.105 19.412,6.061 37.479,12.196 54.203,18.407 16.721,6.204 33.451,12.744 50.191,19.62 C 83.768,15.74 65.979,6.934 49.188,-0.803 32.392,-8.544 15.241,-15.102 -2.269,-20.473 c -0.991,-9.161 -2.236,-18.809 -3.724,-28.948 -1.492,-10.144 -2.703,-19.735 -3.627,-28.78 -0.93,-9.046 -1.359,-16.923 -1.296,-23.623 0.063,-6.703 1.218,-11.084 3.464,-13.14 2.293,-2.235 5.426,-2.642 9.404,-1.212 3.977,1.425 8.055,3.543 12.238,6.349 4.181,2.806 8.05,5.716 11.609,8.74 3.556,3.018 5.948,5.067 7.18,6.15 -1.75,-1.978 -4.192,-4.56 -7.326,-7.751 -3.132,-3.195 -6.492,-6.254 -10.071,-9.185 -3.583,-2.933 -7.291,-5.374 -11.127,-7.335 -3.84,-1.957 -7.36,-2.601 -10.562,-1.933 -3.56,0.575 -6.29,2.503 -8.199,5.788 -1.903,3.284 -3.247,7.471 -4.023,12.569 -0.775,5.092 -1.026,10.894 -0.755,17.403 0.272,6.504 0.763,13.261 1.472,20.263 0.71,7.001 1.582,14.089 2.625,21.276 1.039,7.181 1.938,13.997 2.701,20.445 -16.386,-3.186 -32.199,-5.651 -47.451,-7.401 -2.391,-0.252 -4.349,-0.01 -5.869,0.725 -1.516,0.736 -2.341,2.79 -2.477,6.161 8.385,0.507 17.564,1.41 27.534,2.717 9.971,1.301 19.691,3.39 29.153,6.266 0.434,4.089 0.795,7.92 1.084,11.5 0.288,3.576 0.303,6.562 0.053,8.958 0.485,0.314 1.311,0.58 2.487,0.797 C -6.6,6.538 -5.398,6.478 -4.175,6.14 -2.948,5.797 -1.919,5.123 -1.085,4.114 -0.25,3.101 0.111,1.732 0,0" /></g><g
           transform="translate(748.4375,518.288)"
           id="g40"><path
             id="path42"
             style="fill:#ffffff;fill-opacity:1;fill-rule:nonzero;stroke:none"
             d="m 0,0 c -1.826,0.464 -3.522,0.25 -5.086,-0.632 -1.567,-0.888 -3.157,-2.208 -4.777,-3.956 2.059,-1.351 4.776,-1.962 8.147,-1.827 3.373,0.13 7.004,0.711 10.899,1.737 0.741,4.358 0.736,8.331 -0.02,11.92 -0.759,3.584 -1.967,6.198 -3.63,7.845 -1.665,1.642 -3.678,2.103 -6.044,1.387 -2.365,-0.722 -4.812,-3.114 -7.333,-7.186 2.515,1.231 6.015,1.586 10.508,1.066 z m -12.014,-8.278 c -1.602,-3.262 -2.621,-6.938 -3.055,-11.028 -0.438,-4.09 -0.159,-7.471 0.829,-10.143 0.989,-2.677 2.65,-4.128 4.983,-4.365 2.334,-0.237 5.471,1.868 9.408,6.314 1.704,2.151 3.332,4.945 4.888,8.386 1.553,3.434 2.641,6.844 3.265,10.23 -4.51,-1.571 -8.54,-2.252 -12.093,-2.052 -3.558,0.198 -6.296,1.081 -8.225,2.658 m 27.302,5.211 c 2.031,0.911 5.089,2.236 9.172,3.979 C 28.545,2.65 32.454,5.051 36.188,8.12 35.414,6.022 33.081,3.752 29.183,1.306 25.286,-1.143 20.581,-3.758 15.066,-6.534 14.835,-12.84 13.542,-19.242 11.184,-25.728 8.822,-32.219 5.271,-37.224 0.521,-40.747 c -4.668,-3.126 -8.736,-4.39 -12.204,-3.785 -3.471,0.596 -6.258,2.368 -8.359,5.319 -2.098,2.947 -3.5,6.646 -4.203,11.101 -0.699,4.451 -0.67,9.002 0.092,13.651 0.761,4.647 2.213,9.004 4.36,13.074 2.145,4.067 5.11,7.168 8.903,9.305 3.051,4.21 6.081,7.09 9.079,8.64 3,1.545 5.714,1.835 8.147,0.87 2.43,-0.97 4.479,-3.176 6.144,-6.615 1.663,-3.444 2.598,-8.071 2.808,-13.88" /></g><g
           transform="translate(796.4863,499.7235)"
           id="g44"><path
             id="path46"
             style="fill:#ffffff;fill-opacity:1;fill-rule:nonzero;stroke:none"
             d="m 0,0 c 0.676,2.45 2.032,5.03 4.062,7.744 2.029,2.708 4.163,5.213 6.397,7.507 2.235,2.292 4.315,4.26 6.25,5.906 1.932,1.645 3.206,2.735 3.821,3.279 C 20.398,24.21 18.999,22.705 16.326,19.92 13.655,17.131 11.029,13.98 8.456,10.464 5.879,6.944 4.127,3.547 3.192,0.274 2.255,-3.002 3.415,-5.062 6.668,-5.907 c 4.099,-1.192 8.062,-0.429 11.891,2.282 3.827,2.713 7.011,6.25 9.553,10.61 2.54,4.363 4.043,9.062 4.513,14.11 0.468,5.043 -0.697,9.278 -3.492,12.708 -2.571,3.296 -5.49,4.133 -8.755,2.517 -3.264,-1.619 -6.34,-4.324 -9.219,-8.109 C 8.276,24.421 5.799,20.17 3.73,15.465 1.659,10.752 0.509,7.041 0.277,4.332 Z m 0.645,27.71 c 2.128,3.4 4.499,6.626 7.1,9.681 2.603,3.051 5.369,5.483 8.297,7.298 2.93,1.81 5.936,2.793 9.019,2.945 3.085,0.148 6.194,-1.065 9.335,-3.643 3.635,-3.016 6.013,-6.649 7.132,-10.896 1.12,-4.248 1.276,-8.609 0.467,-13.078 C 41.188,15.544 39.554,11.139 37.104,6.801 34.649,2.464 31.79,-1.227 28.522,-4.263 25.251,-7.303 21.606,-9.448 17.584,-10.695 13.558,-11.948 9.651,-11.842 5.859,-10.38 2.692,-9.134 0.827,-7.447 0.268,-5.323 l -1.833,-148.121 c -1.992,16.891 -3.645,33.393 -4.962,49.512 -1.314,16.121 -2.395,32.068 -3.244,47.838 -0.844,15.774 -1.479,31.644 -1.908,47.621 -0.422,15.975 -0.769,32.351 -1.027,49.132 -0.093,0.352 0.576,0.671 2.018,0.957 1.439,0.282 2.992,0.314 4.661,0.093 1.665,-0.226 3.161,-0.869 4.486,-1.94 1.32,-1.072 1.932,-2.853 1.833,-5.338 z" /></g></g></g></g></svg>