<?xml version="1.0" encoding="utf-8"?>
<!-- Generator: Adobe Illustrator 22.0.1, SVG Export Plug-In . SVG Version: 6.00 Build 0)  -->
<svg version="1.1" id="Capa_1" xmlns="http://www.w3.org/2000/svg" xmlns:xlink="http://www.w3.org/1999/xlink" x="0px" y="0px"
	 viewBox="0 0 931.4 673.9" style="enable-background:new 0 0 931.4 673.9;" xml:space="preserve">
<style type="text/css">
	.st0{fill:#FFFFFF;}
	.st1{fill:#1D1D1B;}
</style>
<g>
	<g>
		<polygon class="st0" points="931.4,673.9 725.4,551.5 10.9,649.5 752.1,426.6 		"/>
		<polygon class="st0" points="444,0 725.4,389 0,609.8 		"/>
	</g>
	<g>
		<path class="st1" d="M273.1,349.5c1.6-4,3.4-8.7,5.3-14.2c2-5.4,3.7-10.7,5.1-15.7c1.4-5,2.3-9.4,2.6-13.2
			c0.3-3.8-0.5-6.1-2.4-6.9c-3.2-1.4-7.1-0.5-11.8,2.7c-4.6,3.2-9.6,8.2-15,14.9c-5.3,6.7-10.8,14.8-16.3,24.3
			c-5.5,9.5-10.8,19.8-15.9,30.9c-5,11.1-9.6,22.5-13.6,34.4c-4.1,11.9-7.4,23.5-9.9,35c-2.6,11.5-4,22.4-4.4,32.8
			c-0.4,10.4,0.6,19.7,2.9,27.8c1.8,6.7,4.1,11.1,7,13.1c2.9,2,6.2,3,10.1,3.2c4,0.3,9.2-1.9,15.5-6.4c6.3-4.5,13.1-10.3,20.3-17.3
			c7.2-7,14.6-14.8,22.2-23.3c7.6-8.5,14.7-16.9,21.3-25.2c6.6-8.3,12.4-15.8,17.5-22.6c5-6.8,8.7-12,10.9-15.7
			c-1.7,3.7-4.6,8.9-8.7,15.6c-4.1,6.8-9,14.2-14.7,22.2c-5.7,8-12.1,16.4-19.1,25.2c-7,8.8-14.1,17-21.3,24.8
			c-7.2,7.8-14.4,14.7-21.5,20.7c-7.1,6-13.7,10.4-19.8,13.2c-4.1,1.8-8.1,1.9-12.1,0.4c-4-1.6-7.7-4.6-10.9-9
			c-4.5-6.2-7.5-14.1-9.2-23.7c-1.7-9.6-2.1-20.1-1.4-31.6c0.8-11.5,2.6-23.5,5.6-36.3c3-12.7,6.7-25.3,11.2-37.7
			c4.5-12.4,9.7-24.5,15.6-36.1c5.9-11.6,12.3-22,19-31.3c6.7-9.3,13.8-17,21.1-23.2c7.4-6.2,14.8-10.2,22.3-12
			c5.6-0.9,9.5,0.1,11.7,3c2.2,2.9,3.3,6.9,3.3,11.9c0,5-0.8,10.6-2.4,16.8c-1.6,6.2-3.4,12.2-5.5,17.9c-2.1,5.8-4.1,10.8-6.1,15.2
			c-2,4.4-3.3,7.3-4.1,8.6c-0.9,0.1-1.9-0.1-3-0.5c-1.1-0.4-1.9-1.1-2.6-2.2c-0.7-1.1-1-2.4-1-4.1
			C271.3,354.2,271.9,352.1,273.1,349.5z"/>
		<path class="st1" d="M405.5,389.5c-1.2,2.6-3.3,6.5-6.4,11.8c-3.1,5.3-6.5,10.7-10.3,16.3c-3.8,5.6-7.8,10.9-12.1,15.7
			c-4.2,4.8-8.2,8.1-11.9,9.8c-3.7,1.7-6.9,1.4-9.5-1c-2.6-2.4-4.2-8.2-4.7-17.4c-2.2,3.8-4.4,7.4-6.7,10.8
			c-2.2,3.4-4.4,6.5-6.5,9.2c-2.1,2.7-4.1,5-5.9,6.7c-1.8,1.7-3.5,2.7-4.9,2.9c-4.3,0.8-7.4-0.7-9.1-4.4c-1.7-3.7-2.5-8.3-2.2-13.8
			c0.3-5.5,1.4-11.2,3.4-17.4c2-6.1,4.6-11.3,7.7-15.5s6.7-6.8,10.6-7.8c3.9-0.9,7.9,0.9,12,5.5c0.9-2.3,2-5,3.3-8.1
			c1.3-3.1,2.8-5.3,4.5-6.7c0.6-0.5,1.4-0.8,2.3-0.9c0.9-0.1,1.8,0.5,2.7,1.6c0.5,0.4,0.5,2.2,0.1,5.2c-0.4,3-1,6.6-1.6,10.6
			c-0.6,4-1.2,8.3-1.6,12.6c-0.5,4.4-0.5,8.2-0.1,11.4c0.4,3.2,1.3,5.5,2.8,6.8c1.5,1.3,3.8,0.9,7-1.3c2.9-1.9,6.2-4.8,9.9-8.7
			c3.7-3.9,7.3-8,10.8-12.2c3.5-4.2,6.8-8.4,9.8-12.4C401.8,395,404,391.8,405.5,389.5z M343.9,411.2c-2.8-5.5-5.3-7.6-7.5-6.4
			c-2.2,1.3-4.1,4-5.6,8.3c-1.5,4.3-2.7,9.2-3.5,14.8c-0.8,5.6-1,10.1-0.7,13.4c1.3-1.5,3.1-3.6,5.4-6.4c2.3-2.8,4.5-5.7,6.5-8.8
			c2-3.1,3.7-6,4.9-8.7C344.7,414.7,344.9,412.6,343.9,411.2z"/>
		<path class="st1" d="M414.2,391.5c2.1-3.4,4.5-6.6,7.1-9.7c2.6-3.1,5.4-5.5,8.3-7.3c2.9-1.8,5.9-2.8,9-2.9
			c3.1-0.1,6.2,1.1,9.3,3.6c3.6,3,6,6.6,7.1,10.9c1.1,4.2,1.3,8.6,0.5,13.1c-0.8,4.5-2.4,8.9-4.9,13.2c-2.5,4.3-5.3,8-8.6,11.1
			c-3.3,3-6.9,5.2-10.9,6.4c-4,1.3-7.9,1.1-11.7-0.3c-3.2-1.2-5-2.9-5.6-5.1L412,572.6c-2-16.9-3.6-33.4-5-49.5
			c-1.3-16.1-2.4-32.1-3.2-47.8c-0.8-15.8-1.5-31.6-1.9-47.6c-0.4-16-0.8-32.3-1-49.1c-0.1-0.4,0.6-0.7,2-1c1.4-0.3,3-0.3,4.7-0.1
			c1.7,0.2,3.2,0.9,4.5,1.9c1.3,1.1,1.9,2.9,1.8,5.3L414.2,391.5z M413.6,419.2c0.7-2.5,2-5,4.1-7.7c2-2.7,4.2-5.2,6.4-7.5
			c2.2-2.3,4.3-4.3,6.2-5.9c1.9-1.6,3.2-2.7,3.8-3.3c-0.1,0.2-1.5,1.7-4.2,4.5c-2.7,2.8-5.3,5.9-7.9,9.5c-2.6,3.5-4.3,6.9-5.3,10.2
			c-0.9,3.3,0.2,5.3,3.5,6.2c4.1,1.2,8.1,0.4,11.9-2.3c3.8-2.7,7-6.2,9.6-10.6c2.5-4.4,4-9.1,4.5-14.1c0.5-5-0.7-9.3-3.5-12.7
			c-2.6-3.3-5.5-4.1-8.8-2.5c-3.3,1.6-6.3,4.3-9.2,8.1c-2.9,3.8-5.4,8-7.4,12.7c-2.1,4.7-3.2,8.4-3.5,11.1L413.6,419.2z"/>
		<path class="st1" d="M491.4,313.8c0,1.3-0.3,3.1-0.7,5.3c-0.5,2.2-0.8,4.6-1.1,7.1c19.4-6.1,37.5-12.2,54.2-18.4
			c16.7-6.2,33.5-12.7,50.2-19.6c-18.8,9.9-36.6,18.7-53.4,26.4c-16.8,7.7-33.9,14.3-51.5,19.7c-1,9.2-2.2,18.8-3.7,28.9
			c-1.5,10.1-2.7,19.7-3.6,28.8c-0.9,9-1.4,16.9-1.3,23.6c0.1,6.7,1.2,11.1,3.5,13.1c2.3,2.2,5.4,2.6,9.4,1.2
			c4-1.4,8.1-3.5,12.2-6.3c4.2-2.8,8-5.7,11.6-8.7c3.6-3,5.9-5.1,7.2-6.2c-1.7,2-4.2,4.6-7.3,7.8c-3.1,3.2-6.5,6.3-10.1,9.2
			c-3.6,2.9-7.3,5.4-11.1,7.3c-3.8,2-7.4,2.6-10.6,1.9c-3.6-0.6-6.3-2.5-8.2-5.8c-1.9-3.3-3.2-7.5-4-12.6c-0.8-5.1-1-10.9-0.8-17.4
			c0.3-6.5,0.8-13.3,1.5-20.3c0.7-7,1.6-14.1,2.6-21.3c1-7.2,1.9-14,2.7-20.4c-16.4,3.2-32.2,5.7-47.5,7.4c-2.4,0.3-4.3,0-5.9-0.7
			c-1.5-0.7-2.3-2.8-2.5-6.2c8.4-0.5,17.6-1.4,27.5-2.7c10-1.3,19.7-3.4,29.2-6.3c0.4-4.1,0.8-7.9,1.1-11.5c0.3-3.6,0.3-6.6,0.1-9
			c0.5-0.3,1.3-0.6,2.5-0.8c1.2-0.2,2.4-0.2,3.6,0.2c1.2,0.3,2.3,1,3.1,2C491.2,310.7,491.5,312,491.4,313.8z"/>
		<path class="st1" d="M559.5,356.6c2-0.9,5.1-2.2,9.2-4c4.1-1.7,8-4.1,11.7-7.2c-0.8,2.1-3.1,4.4-7,6.8c-3.9,2.4-8.6,5.1-14.1,7.8
			c-0.2,6.3-1.5,12.7-3.9,19.2c-2.4,6.5-5.9,11.5-10.7,15c-4.7,3.1-8.7,4.4-12.2,3.8c-3.5-0.6-6.3-2.4-8.4-5.3
			c-2.1-2.9-3.5-6.6-4.2-11.1c-0.7-4.5-0.7-9,0.1-13.7c0.8-4.6,2.2-9,4.4-13.1c2.1-4.1,5.1-7.2,8.9-9.3c3.1-4.2,6.1-7.1,9.1-8.6
			c3-1.5,5.7-1.8,8.1-0.9c2.4,1,4.5,3.2,6.1,6.6C558.3,346.2,559.3,350.8,559.5,356.6z M532.2,361.8c-1.6,3.3-2.6,6.9-3.1,11
			c-0.4,4.1-0.2,7.5,0.8,10.1c1,2.7,2.7,4.1,5,4.4c2.3,0.2,5.5-1.9,9.4-6.3c1.7-2.2,3.3-4.9,4.9-8.4c1.6-3.4,2.6-6.8,3.3-10.2
			c-4.5,1.6-8.5,2.3-12.1,2.1C536.9,364.3,534.1,363.4,532.2,361.8z M544.2,353.5c-1.8-0.5-3.5-0.2-5.1,0.6c-1.6,0.9-3.2,2.2-4.8,4
			c2.1,1.4,4.8,2,8.1,1.8c3.4-0.1,7-0.7,10.9-1.7c0.7-4.4,0.7-8.3,0-11.9c-0.8-3.6-2-6.2-3.6-7.8c-1.7-1.6-3.7-2.1-6-1.4
			c-2.4,0.7-4.8,3.1-7.3,7.2c2.5-1.2,6-1.6,10.5-1.1L544.2,353.5z"/>
		<path class="st1" d="M592.9,344.4c2.1-3.4,4.5-6.6,7.1-9.7c2.6-3.1,5.4-5.5,8.3-7.3c2.9-1.8,5.9-2.8,9-2.9
			c3.1-0.1,6.2,1.1,9.3,3.6c3.6,3,6,6.6,7.1,10.9c1.1,4.2,1.3,8.6,0.5,13.1c-0.8,4.5-2.4,8.9-4.9,13.2c-2.5,4.3-5.3,8-8.6,11.1
			c-3.3,3-6.9,5.2-10.9,6.4c-4,1.3-7.9,1.1-11.7-0.3c-3.2-1.2-5-2.9-5.6-5.1l-1.8,148.1c-2-16.9-3.6-33.4-5-49.5
			c-1.3-16.1-2.4-32.1-3.2-47.8c-0.8-15.8-1.5-31.6-1.9-47.6c-0.4-16-0.8-32.4-1-49.1c-0.1-0.4,0.6-0.7,2-1c1.4-0.3,3-0.3,4.7-0.1
			c1.7,0.2,3.2,0.9,4.5,1.9c1.3,1.1,1.9,2.9,1.8,5.3L592.9,344.4z M592.3,372.1c0.7-2.5,2-5,4.1-7.7c2-2.7,4.2-5.2,6.4-7.5
			c2.2-2.3,4.3-4.3,6.2-5.9c1.9-1.6,3.2-2.7,3.8-3.3c-0.1,0.2-1.5,1.7-4.2,4.5c-2.7,2.8-5.3,5.9-7.9,9.5c-2.6,3.5-4.3,6.9-5.3,10.2
			c-0.9,3.3,0.2,5.3,3.5,6.2c4.1,1.2,8.1,0.4,11.9-2.3c3.8-2.7,7-6.2,9.6-10.6c2.5-4.4,4-9.1,4.5-14.1c0.5-5-0.7-9.3-3.5-12.7
			c-2.6-3.3-5.5-4.1-8.8-2.5c-3.3,1.6-6.3,4.3-9.2,8.1c-2.9,3.8-5.4,8-7.4,12.7c-2.1,4.7-3.2,8.4-3.5,11.1L592.3,372.1z"/>
	</g>
</g>
</svg>
